#!OML:ASF H:\Dans Jumps\Project 1\Capture day 1\Session 1\subject.ASF
:FULLY-SPECIFIED
:DEGREES
407
root 0.467641 17.8567 10.842 8.60283 -0.680705 -2.28777
lowerback 0.127615 1.21479 -1.10144
upperback 2.12221 1.62196 0.530278
thorax 2.0573 0.784918 1.18686
lowerneck -9.50425 -0.977659 -1.84878
upperneck 25.0428 -1.87019 3.46607
head 9.49559 -0.665102 1.31146
rclavicle -3.32964e-015 6.36111e-015
rhumerus -31.8493 -2.42055 -83.2884
rradius 40.3514
rwrist 32.2707
rhand -19.0008 -28.7132
rfingers 7.12502
rthumb 7.3044 -58.5671
lclavicle -3.32964e-015 6.36111e-015
lhumerus -44.6884 -13.6538 93.8387
lradius 31.5084
lwrist 26.3272
lhand -26.0356 -9.13358
lfingers 7.12502
lthumb 0.511399 20.8455
rfemur -16.2598 -5.80629 23.1186
rtibia 18.9182
rfoot -9.21062 2.15612
rtoes 18.6965
lfemur -19.372 8.28188 -18.0692
ltibia 21.5955
lfoot -5.17239 4.20136
ltoes -2.5513
408
root 0.463721 17.8354 10.8935 8.56955 -0.734461 -2.06577
lowerback 0.012835 1.19339 -1.25997
upperback 2.04448 1.59684 0.498745
thorax 2.03935 0.770431 1.24447
lowerneck -9.62992 -0.940687 -1.93037
upperneck 25.0501 -1.77667 3.36871
head 9.51905 -0.63853 1.30168
rclavicle -3.90612e-014 -2.98177e-015
rhumerus -31.829 -2.67449 -83.164
rradius 40.0454
rwrist 32.4687
rhand -18.982 -28.7506
rfingers 7.12502
rthumb 7.32249 -58.6039
lclavicle -3.90612e-014 -2.98177e-015
lhumerus -44.5603 -13.2073 93.4494
lradius 30.8276
lwrist 25.3733
lhand -26.1145 -9.11195
lfingers 7.12502
lthumb 0.435174 20.8673
rfemur -16.0157 -5.55422 22.8457
rtibia 18.9245
rfoot -9.77573 1.87739
rtoes 18.4294
lfemur -18.9256 8.21306 -18.2147
ltibia 21.2724
lfoot -5.57062 4.19884
ltoes -3.17241
409
root 0.459638 17.8145 10.9412 8.55344 -0.819931 -1.83538
lowerback -0.0851165 1.18069 -1.44046
upperback 1.96805 1.58362 0.468183
thorax 2.01241 0.761673 1.31515
lowerneck -9.77756 -0.904285 -2.00005
upperneck 25.0573 -1.68547 3.27036
head 9.54667 -0.611954 1.28927
rclavicle 1.23495e-014 -2.5842e-015
rhumerus -31.7538 -2.93844 -83.0393
rradius 39.6714
rwrist 32.7198
rhand -18.9618 -28.7655
rfingers 7.12502
rthumb 7.34202 -58.6181
lclavicle 1.23495e-014 -2.5842e-015
lhumerus -44.3653 -12.7291 93.0277
lradius 30.1291
lwrist 24.346
lhand -26.1446 -8.98369
lfingers 7.12502
lthumb 0.406088 20.9957
rfemur -15.8543 -5.27223 22.5762
rtibia 19.0148
rfoot -10.3071 1.54859
rtoes 18.039
lfemur -18.5119 8.1559 -18.3788
ltibia 20.9438
lfoot -5.93266 4.21636
ltoes -3.79267
410
root 0.455524 17.7953 10.9851 8.55142 -0.935406 -1.61873
lowerback -0.166775 1.17635 -1.61739
upperback 1.89643 1.58139 0.442788
thorax 1.98092 0.758565 1.38901
lowerneck -9.94476 -0.864586 -2.04546
upperneck 25.0624 -1.59097 3.16046
head 9.57705 -0.582805 1.26908
rclavicle -1.2921e-014 -1.49089e-015
rhumerus -31.6227 -3.21575 -82.919
rradius 39.227
rwrist 33.0401
rhand -18.9362 -28.7682
rfingers 7.12502
rthumb 7.36669 -58.6199
lclavicle -1.2921e-014 -1.49089e-015
lhumerus -44.1026 -12.1968 92.5648
lradius 29.4267
lwrist 23.3298
lhand -26.1289 -8.83914
lfingers 7.12502
lthumb 0.421227 21.1402
rfemur -15.7699 -5.01132 22.3396
rtibia 19.1675
rfoot -10.7638 1.21926
rtoes 17.572
lfemur -18.1239 8.12165 -18.5396
ltibia 20.6014
lfoot -6.24802 4.2542
ltoes -4.36711
411
root 0.451668 17.7794 11.0252 8.56077 -1.07557 -1.43555
lowerback -0.231705 1.17764 -1.76608
upperback 1.83421 1.58608 0.426309
thorax 1.94995 0.759349 1.45606
lowerneck -10.1286 -0.82114 -2.07171
upperneck 25.061 -1.49336 3.04625
head 9.60813 -0.550952 1.24446
rclavicle -1.41634e-015 -1.88845e-015
rhumerus -31.4355 -3.51403 -82.8057
rradius 38.7152
rwrist 33.4324
rhand -18.9137 -28.765
rfingers 7.12502
rthumb 7.38846 -58.616
lclavicle -1.41634e-015 -1.88845e-015
lhumerus -43.7733 -11.5929 92.0556
lradius 28.7362
lwrist 22.3745
lhand -26.0821 -8.75553
lfingers 7.12502
lthumb 0.466452 21.2237
rfemur -15.7439 -4.79288 22.1532
rtibia 19.3545
rfoot -11.121 0.933206
rtoes 17.0936
lfemur -17.7576 8.11241 -18.6779
ltibia 20.2458
lfoot -6.50627 4.31768
ltoes -4.84224
412
root 0.44889 17.7682 11.063 8.57421 -1.22719 -1.31195
lowerback -0.290205 1.1821 -1.84548
upperback 1.78639 1.59394 0.42206
thorax 1.93146 0.762583 1.49698
lowerneck -10.3151 -0.774993 -2.06724
upperneck 25.0455 -1.39432 2.9186
head 9.63454 -0.517239 1.21002
rclavicle -1.0312e-014 5.96354e-016
rhumerus -31.1947 -3.85226 -82.7007
rradius 38.132
rwrist 33.9072
rhand -18.9106 -28.7513
rfingers 7.12502
rthumb 7.3914 -58.6022
lclavicle -1.0312e-014 5.96354e-016
lhumerus -43.3788 -10.9287 91.5105
lradius 28.0385
lwrist 21.5179
lhand -26.0069 -8.77813
lfingers 7.12502
lthumb 0.539067 21.2009
rfemur -15.7337 -4.64099 22.0347
rtibia 19.5352
rfoot -11.3809 0.742356
rtoes 16.6766
lfemur -17.4095 8.12915 -18.7687
ltibia 19.8983
lfoot -6.71243 4.40847
ltoes -5.21252
413
root 0.447409 17.7619 11.0984 8.59284 -1.3748 -1.25768
lowerback -0.345526 1.18449 -1.8407
upperback 1.75796 1.59775 0.432418
thorax 1.93301 0.764676 1.5059
lowerneck -10.5132 -0.726832 -2.0357
upperneck 25.0112 -1.2957 2.78373
head 9.65643 -0.48212 1.16832
rclavicle 5.46658e-015 -6.06293e-015
rhumerus -30.8864 -4.23702 -82.6017
rradius 37.472
rwrist 34.4545
rhand -18.9175 -28.7515
rfingers 7.12502
rthumb 7.3848 -58.6026
lclavicle 5.46658e-015 -6.06293e-015
lhumerus -42.9169 -10.2037 90.9327
lradius 27.3456
lwrist 20.7519
lhand -25.9473 -8.87806
lfingers 7.12502
lthumb 0.596664 21.1009
rfemur -15.7135 -4.53343 21.985
rtibia 19.6739
rfoot -11.555 0.646781
rtoes 16.4126
lfemur -17.0945 8.15595 -18.8011
ltibia 19.5859
lfoot -6.86148 4.53164
ltoes -5.47588
414
root 0.447327 17.7603 11.1322 8.61679 -1.50473 -1.29533
lowerback -0.400216 1.18092 -1.72805
upperback 1.74536 1.59176 0.464945
thorax 1.95302 0.763087 1.47718
lowerneck -10.7072 -0.675906 -1.97991
upperneck 24.9491 -1.19712 2.64547
head 9.66772 -0.445407 1.12117
rclavicle 4.52235e-015 -1.39149e-015
rhumerus -30.5241 -4.68761 -82.499
rradius 36.7355
rwrist 35.0721
rhand -18.9229 -28.7521
rfingers 7.12502
rthumb 7.37953 -58.6034
lclavicle 4.52235e-015 -1.39149e-015
lhumerus -42.3987 -9.41262 90.3265
lradius 26.65
lwrist 20.0402
lhand -25.9037 -9.03335
lfingers 7.12502
lthumb 0.638713 20.9454
rfemur -15.6601 -4.45557 22.0229
rtibia 19.7411
rfoot -11.6548 0.642704
rtoes 16.3391
lfemur -16.8293 8.18499 -18.7485
ltibia 19.3429
lfoot -6.96982 4.68769
ltoes -5.61188
415
root 0.448487 17.7625 11.165 8.65269 -1.60685 -1.39057
lowerback -0.464431 1.16774 -1.54481
upperback 1.73729 1.57167 0.510946
thorax 1.98499 0.755343 1.42277
lowerneck -10.879 -0.619645 -1.90421
upperneck 24.8608 -1.096 2.50946
head 9.66546 -0.405761 1.07162
rclavicle -5.44173e-015 -4.37326e-015
rhumerus -30.1482 -5.19742 -82.3873
rradius 35.9577
rwrist 35.7234
rhand -18.9212 -28.762
rfingers 7.12502
rthumb 7.38124 -58.6133
lclavicle -5.44173e-015 -4.37326e-015
lhumerus -41.8583 -8.56045 89.6987
lradius 25.9632
lwrist 19.3234
lhand -25.8861 -9.17664
lfingers 7.12502
lthumb 0.655783 20.8021
rfemur -15.5776 -4.4226 22.1129
rtibia 19.734
rfoot -11.6966 0.723717
rtoes 16.4251
lfemur -16.6273 8.21317 -18.6485
ltibia 19.185
lfoot -7.05694 4.86083
ltoes -5.61442
416
root 0.450191 17.7671 11.1969 8.70581 -1.67739 -1.5258
lowerback -0.542028 1.14485 -1.31941
upperback 1.72694 1.53761 0.569334
thorax 2.02327 0.741203 1.35739
lowerneck -11.0208 -0.564899 -1.83346
upperneck 24.7444 -1.003 2.39984
head 9.64802 -0.367768 1.03109
rclavicle -1.14798e-014 3.23025e-015
rhumerus -29.7857 -5.76812 -82.2566
rradius 35.1699
rwrist 36.362
rhand -18.8837 -28.7691
rfingers 7.12502
rthumb 7.41746 -58.6191
lclavicle -1.14798e-014 3.23025e-015
lhumerus -41.3174 -7.66521 89.0624
lradius 25.2926
lwrist 18.5611
lhand -25.9054 -9.30597
lfingers 7.12502
lthumb 0.637143 20.6728
rfemur -15.4846 -4.42817 22.2441
rtibia 19.6697
rfoot -11.6958 0.848036
rtoes 16.5591
lfemur -16.4977 8.23841 -18.5155
ltibia 19.1115
lfoot -7.13726 5.03657
ltoes -5.47022
417
root 0.452269 17.773 11.2292 8.78489 -1.7129 -1.64814
lowerback -0.653854 1.10911 -1.10697
upperback 1.70342 1.48659 0.624963
thorax 2.06736 0.718482 1.29656
lowerneck -11.1222 -0.514175 -1.77742
upperneck 24.6097 -0.923342 2.33058
head 9.61708 -0.333195 1.00554
rclavicle -1.43498e-014 -7.65321e-015
rhumerus -29.4738 -6.40736 -82.1045
rradius 34.3973
rwrist 36.9544
rhand -18.8155 -28.7525
rfingers 7.12502
rthumb 7.48327 -58.6002
lclavicle -1.43498e-014 -7.65321e-015
lhumerus -40.8104 -6.7662 88.4368
lradius 24.6534
lwrist 17.751
lhand -25.9415 -9.38281
lfingers 7.12502
lthumb 0.602235 20.5961
rfemur -15.4117 -4.51363 22.3661
rtibia 19.5898
rfoot -11.6805 1.022
rtoes 16.6879
lfemur -16.4307 8.27196 -18.4079
ltibia 19.0933
lfoot -7.23046 5.18012
ltoes -5.18971
